<?xml version="1.0" encoding="utf-8"?>
<svg version="1.1" xmlns:xlink="http://www.w3.org/1999/xlink" width="25px" height="26px" xmlns="http://www.w3.org/2000/svg">
  <g transform="matrix(1 0 0 1 -271 -8 )">
    <path d="M 17.7005438477226 22.7923177083333  C 19.1677996827555 22.0983072916667  20.4169499206889 21.1306423611111  21.4479945615228 19.8893229166667  C 20.8361658735554 19.9908854166667  20.2130070246998 20.0416666666667  19.5785180149558 20.0416666666667  C 17.516428733288 20.0416666666667  15.6072966236121 19.5338541666667  13.8511216859279 18.5182291666667  C 12.0949467482438 17.5026041666667  10.707002039429 16.1202256944444  9.68728755948334 14.37109375  C 8.66757307953773 12.6219618055556  8.15771583956492 10.7204861111111  8.15771583956492 8.66666666666667  C 8.15771583956492 6.5  8.74688420575572 4.48567708333333  9.92522093813732 2.62369791666667  C 7.64785859959211 3.30078125  5.78687967369137 4.59288194444444  4.34228416043508 6.5  C 2.89768864717879 8.40711805555555  2.17539089055065 10.5737847222222  2.17539089055065 13  C 2.17539089055065 14.4670138888889  2.4643099932019 15.869140625  3.04214819850442 17.2063802083333  C 3.61998640380693 18.5436197916667  4.39326988443236 19.6946614583333  5.36199864038069 20.6595052083333  C 6.33072739632903 21.6243489583333  7.48640380693406 22.39453125  8.82902787219579 22.9700520833333  C 10.1716519374575 23.5455729166667  11.5794244278269 23.8333333333333  13.0523453433039 23.8333333333333  C 14.6838885112169 23.8333333333333  16.2332880126898 23.486328125  17.7005438477226 22.7923177083333  Z M 24.9745071380014 17.8072916666667  C 25.0141627011104 18.0329861111111  24.9886698391117 18.2473958333333  24.8980285520054 18.4505208333333  C 23.8329934285067 20.7413194444444  22.2269431225923 22.572265625  20.0798776342624 23.943359375  C 17.9328121459325 25.314453125  15.5903013822796 26  13.0523453433039 26  C 11.2848402447315 26  9.59664627237707 25.6558159722222  7.98776342624065 24.9674479166667  C 6.37888058010424 24.2790798611111  4.99093587128937 23.3537326388889  3.82392929979606 22.19140625  C 2.65692272830274 21.0290798611111  1.7278495354634 19.6467013888889  1.03670972127804 18.0442708333333  C 0.345569907092681 16.4418402777778  0 14.7604166666667  0 13  C 0 11.2734375  0.325742125538183 9.623046875  0.977226376614548 8.048828125  C 1.62871062769091 6.474609375  2.51246317697711 5.11197916666667  3.62848402447315 3.9609375  C 4.74450487196918 2.80989583333333  6.0786313165647 1.88172743055555  7.63086335825969 1.17643229166667  C 9.18309539995468 0.471137152777777  10.8259687287559 0.0846354166666676  12.5594833446635 0.0169270833333324  C 13.058010423748 -0.0056423611111156  13.4035803308407 0.21440972222222  13.5961930659415 0.677083333333332  C 13.8001359619307 1.13975694444444  13.7151597552685 1.54600694444444  13.3412644459551 1.89583333333333  C 12.3668706095627 2.77604166666667  11.6219125311579 3.80013020833333  11.106390210741 4.96809895833333  C 10.590867890324 6.13606770833333  10.3331067301156 7.36892361111111  10.3331067301156 8.66666666666667  C 10.3331067301156 10.3368055555556  10.746657602538 11.8771701388889  11.5737593473827 13.2877604166667  C 12.4008610922275 14.6983506944444  13.5225470201677 15.8155381944444  14.9388171312033 16.6393229166667  C 16.3550872422388 17.4631076388889  17.9016542034897 17.875  19.5785180149558 17.875  C 20.9154769997734 17.875  22.2071153410378 17.5872395833333  23.4534330387492 17.01171875  C 23.9179696351688 16.80859375  24.3258554271471 16.8819444444444  24.6770904146839 17.2317708333333  C 24.8357126671199 17.3897569444444  24.9348515748924 17.5815972222222  24.9745071380014 17.8072916666667  Z " fill-rule="nonzero" fill="#f59a23" stroke="none" transform="matrix(1 0 0 1 271 8 )" />
  </g>
</svg>