<?xml version="1.0" encoding="utf-8"?>
<svg version="1.1" xmlns:xlink="http://www.w3.org/1999/xlink" width="22px" height="26px" xmlns="http://www.w3.org/2000/svg">
  <defs>
    <filter x="36px" y="107px" width="22px" height="26px" filterUnits="userSpaceOnUse" id="filter38">
      <feOffset dx="1" dy="1" in="SourceAlpha" result="shadowOffsetInner" />
      <feGaussianBlur stdDeviation="2.5" in="shadowOffsetInner" result="shadowGaussian" />
      <feComposite in2="shadowGaussian" operator="atop" in="SourceAlpha" result="shadowComposite" />
      <feColorMatrix type="matrix" values="0 0 0 0 0  0 0 0 0 0  0 0 0 0 0  0 0 0 0.698039215686274 0  " in="shadowComposite" />
    </filter>
    <g id="widget39">
      <path d="M 46 126.036928468354  C 43.8 122.40734059591  40.5 120.229587872444  40.5 116.6  C 40.5 114.705714285714  41.6 111.5  46 111.5  C 50.4 111.5  51.5 114.705714285714  51.5 116.6  C 51.5 120.229587872444  48.2 122.40734059591  46 126.036928468354  Z " fill-rule="nonzero" fill="#009dd9" stroke="none" />
      <path d="M 46 127  C 43.6 123  40 120.6  40 116.6  C 40 114.52  41.2 111  46 111  C 50.8 111  52 114.52  52 116.6  C 52 120.6  48.4 123  46 127  Z M 46 125.073856936707  C 48 121.81468119182  51 119.859175744887  51 116.6  C 51 114.891428571429  50 112  46 112  C 42 112  41 114.891428571429  41 116.6  C 41 119.859175744887  44 121.81468119182  46 125.073856936707  Z " fill-rule="nonzero" fill="#ffffff" stroke="none" />
    </g>
  </defs>
  <g transform="matrix(1 0 0 1 -36 -107 )">
    <use xlink:href="#widget39" filter="url(#filter38)" />
    <use xlink:href="#widget39" />
  </g>
</svg>