<?xml version="1.0" encoding="utf-8"?>
<svg version="1.1" xmlns:xlink="http://www.w3.org/1999/xlink" width="16px" height="16px" xmlns="http://www.w3.org/2000/svg">
  <g transform="matrix(1 0 0 1 -200 -71 )">
    <path d="M 15.640625 9.43229166666667  C 15.7065972222222 9.49826388888889  15.7395833333333 9.57638888888889  15.7395833333333 9.66666666666667  C 15.7395833333333 9.70138888888889  15.7361111111111 9.72569444444444  15.7291666666667 9.73958333333333  C 15.2847222222222 11.6006944444444  14.3541666666667 13.109375  12.9375 14.265625  C 11.5208333333333 15.421875  9.86111111111111 16  7.95833333333333 16  C 6.94444444444445 16  5.96354166666667 15.8090277777778  5.015625 15.4270833333333  C 4.06770833333333 15.0451388888889  3.22222222222222 14.5  2.47916666666667 13.7916666666667  L 1.13541666666667 15.1354166666667  C 1.00347222222222 15.2673611111111  0.847222222222222 15.3333333333333  0.666666666666667 15.3333333333333  C 0.486111111111111 15.3333333333333  0.329861111111111 15.2673611111111  0.197916666666667 15.1354166666667  C 0.0659722222222222 15.0034722222222  0 14.8472222222222  0 14.6666666666667  L 0 10  C 0 9.81944444444444  0.0659722222222222 9.66319444444444  0.197916666666667 9.53125  C 0.329861111111111 9.39930555555555  0.486111111111111 9.33333333333333  0.666666666666667 9.33333333333333  L 5.33333333333333 9.33333333333333  C 5.51388888888889 9.33333333333333  5.67013888888889 9.39930555555555  5.80208333333333 9.53125  C 5.93402777777778 9.66319444444444  6 9.81944444444444  6 10  C 6 10.1805555555556  5.93402777777778 10.3368055555556  5.80208333333333 10.46875  L 4.375 11.8958333333333  C 4.86805555555556 12.3541666666667  5.42708333333333 12.7083333333333  6.05208333333333 12.9583333333333  C 6.67708333333333 13.2083333333333  7.32638888888889 13.3333333333333  8 13.3333333333333  C 8.93055555555556 13.3333333333333  9.79861111111111 13.1076388888889  10.6041666666667 12.65625  C 11.4097222222222 12.2048611111111  12.0555555555556 11.5833333333333  12.5416666666667 10.7916666666667  C 12.6180555555556 10.6736111111111  12.8020833333333 10.2673611111111  13.09375 9.57291666666667  C 13.1493055555556 9.41319444444444  13.2534722222222 9.33333333333333  13.40625 9.33333333333333  L 15.40625 9.33333333333333  C 15.4965277777778 9.33333333333333  15.5746527777778 9.36631944444444  15.640625 9.43229166666667  Z M 15.8020833333333 0.864583333333334  C 15.9340277777778 0.996527777777777  16 1.15277777777778  16 1.33333333333333  L 16 6  C 16 6.18055555555556  15.9340277777778 6.33680555555556  15.8020833333333 6.46875  C 15.6701388888889 6.60069444444444  15.5138888888889 6.66666666666667  15.3333333333333 6.66666666666667  L 10.6666666666667 6.66666666666667  C 10.4861111111111 6.66666666666667  10.3298611111111 6.60069444444444  10.1979166666667 6.46875  C 10.0659722222222 6.33680555555556  10 6.18055555555556  10 6  C 10 5.81944444444444  10.0659722222222 5.66319444444444  10.1979166666667 5.53125  L 11.6354166666667 4.09375  C 10.6076388888889 3.14236111111111  9.39583333333333 2.66666666666667  8 2.66666666666667  C 7.06944444444445 2.66666666666667  6.20138888888889 2.89236111111111  5.39583333333333 3.34375  C 4.59027777777778 3.79513888888889  3.94444444444445 4.41666666666667  3.45833333333333 5.20833333333333  C 3.38194444444444 5.32638888888889  3.19791666666667 5.73263888888889  2.90625 6.42708333333333  C 2.85069444444444 6.58680555555556  2.74652777777778 6.66666666666667  2.59375 6.66666666666667  L 0.520833333333333 6.66666666666667  C 0.430555555555556 6.66666666666667  0.352430555555556 6.63368055555556  0.286458333333333 6.56770833333333  C 0.220486111111111 6.50173611111111  0.1875 6.42361111111111  0.1875 6.33333333333333  L 0.1875 6.26041666666667  C 0.638888888888889 4.39930555555556  1.57638888888889 2.890625  3 1.734375  C 4.42361111111111 0.578125  6.09027777777778 0  8 0  C 9.01388888888889 0  10 0.192708333333334  10.9583333333333 0.578125  C 11.9166666666667 0.963541666666666  12.7673611111111 1.50694444444444  13.5104166666667 2.20833333333333  L 14.8645833333333 0.864583333333334  C 14.9965277777778 0.732638888888888  15.1527777777778 0.666666666666666  15.3333333333333 0.666666666666666  C 15.5138888888889 0.666666666666666  15.6701388888889 0.732638888888888  15.8020833333333 0.864583333333334  Z " fill-rule="nonzero" fill="#000000" stroke="none" transform="matrix(1 0 0 1 200 71 )" />
  </g>
</svg>