<?xml version="1.0" encoding="utf-8"?>
<svg version="1.1" xmlns:xlink="http://www.w3.org/1999/xlink" width="22px" height="26px" xmlns="http://www.w3.org/2000/svg">
  <defs>
    <filter x="194px" y="130px" width="22px" height="26px" filterUnits="userSpaceOnUse" id="filter40">
      <feOffset dx="1" dy="1" in="SourceAlpha" result="shadowOffsetInner" />
      <feGaussianBlur stdDeviation="2.5" in="shadowOffsetInner" result="shadowGaussian" />
      <feComposite in2="shadowGaussian" operator="atop" in="SourceAlpha" result="shadowComposite" />
      <feColorMatrix type="matrix" values="0 0 0 0 0  0 0 0 0 0  0 0 0 0 0  0 0 0 0.698039215686274 0  " in="shadowComposite" />
    </filter>
    <g id="widget41">
      <path d="M 204 149.036928468354  C 201.8 145.40734059591  198.5 143.229587872444  198.5 139.6  C 198.5 137.705714285714  199.6 134.5  204 134.5  C 208.4 134.5  209.5 137.705714285714  209.5 139.6  C 209.5 143.229587872444  206.2 145.40734059591  204 149.036928468354  Z " fill-rule="nonzero" fill="#d9001b" stroke="none" />
      <path d="M 204 150  C 201.6 146  198 143.6  198 139.6  C 198 137.52  199.2 134  204 134  C 208.8 134  210 137.52  210 139.6  C 210 143.6  206.4 146  204 150  Z M 204 148.073856936707  C 206 144.81468119182  209 142.859175744887  209 139.6  C 209 137.891428571429  208 135  204 135  C 200 135  199 137.891428571429  199 139.6  C 199 142.859175744887  202 144.81468119182  204 148.073856936707  Z " fill-rule="nonzero" fill="#ffffff" stroke="none" />
    </g>
  </defs>
  <g transform="matrix(1 0 0 1 -194 -130 )">
    <use xlink:href="#widget41" filter="url(#filter40)" />
    <use xlink:href="#widget41" />
  </g>
</svg>