<?xml version="1.0" encoding="utf-8"?>
<svg version="1.1" xmlns:xlink="http://www.w3.org/1999/xlink" width="19px" height="24px" xmlns="http://www.w3.org/2000/svg">
  <g transform="matrix(1 0 0 1 -42 -502 )">
    <path d="M 5.05362215909091 17.2700892857143  C 5.13908617424242 17.3549107142857  5.18181818181818 17.4553571428571  5.18181818181818 17.5714285714286  L 5.18181818181818 18.4285714285714  C 5.18181818181818 18.5446428571429  5.13908617424242 18.6450892857143  5.05362215909091 18.7299107142857  C 4.96815814393939 18.8147321428571  4.86695075757576 18.8571428571429  4.75 18.8571428571429  L 3.88636363636364 18.8571428571429  C 3.76941287878788 18.8571428571429  3.66820549242424 18.8147321428571  3.58274147727273 18.7299107142857  C 3.49727746212121 18.6450892857143  3.45454545454545 18.5446428571429  3.45454545454545 18.4285714285714  L 3.45454545454545 17.5714285714286  C 3.45454545454545 17.4553571428571  3.49727746212121 17.3549107142857  3.58274147727273 17.2700892857143  C 3.66820549242424 17.1852678571429  3.76941287878788 17.1428571428571  3.88636363636364 17.1428571428571  L 4.75 17.1428571428571  C 4.86695075757576 17.1428571428571  4.96815814393939 17.1852678571429  5.05362215909091 17.2700892857143  Z M 5.05362215909091 13.8415178571429  C 5.13908617424242 13.9263392857143  5.18181818181818 14.0267857142857  5.18181818181818 14.1428571428571  L 5.18181818181818 15  C 5.18181818181818 15.1160714285714  5.13908617424242 15.2165178571429  5.05362215909091 15.3013392857143  C 4.96815814393939 15.3861607142857  4.86695075757576 15.4285714285714  4.75 15.4285714285714  L 3.88636363636364 15.4285714285714  C 3.76941287878788 15.4285714285714  3.66820549242424 15.3861607142857  3.58274147727273 15.3013392857143  C 3.49727746212121 15.2165178571429  3.45454545454545 15.1160714285714  3.45454545454545 15  L 3.45454545454545 14.1428571428571  C 3.45454545454545 14.0267857142857  3.49727746212121 13.9263392857143  3.58274147727273 13.8415178571429  C 3.66820549242424 13.7566964285714  3.76941287878788 13.7142857142857  3.88636363636364 13.7142857142857  L 4.75 13.7142857142857  C 4.86695075757576 13.7142857142857  4.96815814393939 13.7566964285714  5.05362215909091 13.8415178571429  Z M 8.50816761363636 13.8415178571429  C 8.59363162878788 13.9263392857143  8.63636363636364 14.0267857142857  8.63636363636364 14.1428571428571  L 8.63636363636364 15  C 8.63636363636364 15.1160714285714  8.59363162878788 15.2165178571429  8.50816761363636 15.3013392857143  C 8.42270359848485 15.3861607142857  8.32149621212121 15.4285714285714  8.20454545454546 15.4285714285714  L 7.34090909090909 15.4285714285714  C 7.22395833333333 15.4285714285714  7.1227509469697 15.3861607142857  7.03728693181818 15.3013392857143  C 6.95182291666667 15.2165178571429  6.90909090909091 15.1160714285714  6.90909090909091 15  L 6.90909090909091 14.1428571428571  C 6.90909090909091 14.0267857142857  6.95182291666667 13.9263392857143  7.03728693181818 13.8415178571429  C 7.1227509469697 13.7566964285714  7.22395833333333 13.7142857142857  7.34090909090909 13.7142857142857  L 8.20454545454546 13.7142857142857  C 8.32149621212121 13.7142857142857  8.42270359848485 13.7566964285714  8.50816761363636 13.8415178571429  Z M 5.05362215909091 10.4129464285714  C 5.13908617424242 10.4977678571429  5.18181818181818 10.5982142857143  5.18181818181818 10.7142857142857  L 5.18181818181818 11.5714285714286  C 5.18181818181818 11.6875  5.13908617424242 11.7879464285714  5.05362215909091 11.8727678571429  C 4.96815814393939 11.9575892857143  4.86695075757576 12  4.75 12  L 3.88636363636364 12  C 3.76941287878788 12  3.66820549242424 11.9575892857143  3.58274147727273 11.8727678571429  C 3.49727746212121 11.7879464285714  3.45454545454545 11.6875  3.45454545454545 11.5714285714286  L 3.45454545454545 10.7142857142857  C 3.45454545454545 10.5982142857143  3.49727746212121 10.4977678571429  3.58274147727273 10.4129464285714  C 3.66820549242424 10.328125  3.76941287878788 10.2857142857143  3.88636363636364 10.2857142857143  L 4.75 10.2857142857143  C 4.86695075757576 10.2857142857143  4.96815814393939 10.328125  5.05362215909091 10.4129464285714  Z M 15.4172585227273 17.2700892857143  C 15.5027225378788 17.3549107142857  15.5454545454545 17.4553571428571  15.5454545454545 17.5714285714286  L 15.5454545454545 18.4285714285714  C 15.5454545454545 18.5446428571429  15.5027225378788 18.6450892857143  15.4172585227273 18.7299107142857  C 15.3317945075758 18.8147321428571  15.2305871212121 18.8571428571429  15.1136363636364 18.8571428571429  L 14.25 18.8571428571429  C 14.1330492424242 18.8571428571429  14.0318418560606 18.8147321428571  13.9463778409091 18.7299107142857  C 13.8609138257576 18.6450892857143  13.8181818181818 18.5446428571429  13.8181818181818 18.4285714285714  L 13.8181818181818 17.5714285714286  C 13.8181818181818 17.4553571428571  13.8609138257576 17.3549107142857  13.9463778409091 17.2700892857143  C 14.0318418560606 17.1852678571429  14.1330492424242 17.1428571428571  14.25 17.1428571428571  L 15.1136363636364 17.1428571428571  C 15.2305871212121 17.1428571428571  15.3317945075758 17.1852678571429  15.4172585227273 17.2700892857143  Z M 11.9627130681818 13.8415178571429  C 12.0481770833333 13.9263392857143  12.0909090909091 14.0267857142857  12.0909090909091 14.1428571428571  L 12.0909090909091 15  C 12.0909090909091 15.1160714285714  12.0481770833333 15.2165178571429  11.9627130681818 15.3013392857143  C 11.8772490530303 15.3861607142857  11.7760416666667 15.4285714285714  11.6590909090909 15.4285714285714  L 10.7954545454545 15.4285714285714  C 10.6785037878788 15.4285714285714  10.5772964015152 15.3861607142857  10.4918323863636 15.3013392857143  C 10.4063683712121 15.2165178571429  10.3636363636364 15.1160714285714  10.3636363636364 15  L 10.3636363636364 14.1428571428571  C 10.3636363636364 14.0267857142857  10.4063683712121 13.9263392857143  10.4918323863636 13.8415178571429  C 10.5772964015152 13.7566964285714  10.6785037878788 13.7142857142857  10.7954545454545 13.7142857142857  L 11.6590909090909 13.7142857142857  C 11.7760416666667 13.7142857142857  11.8772490530303 13.7566964285714  11.9627130681818 13.8415178571429  Z M 8.50816761363636 10.4129464285714  C 8.59363162878788 10.4977678571429  8.63636363636364 10.5982142857143  8.63636363636364 10.7142857142857  L 8.63636363636364 11.5714285714286  C 8.63636363636364 11.6875  8.59363162878788 11.7879464285714  8.50816761363636 11.8727678571429  C 8.42270359848485 11.9575892857143  8.32149621212121 12  8.20454545454546 12  L 7.34090909090909 12  C 7.22395833333333 12  7.1227509469697 11.9575892857143  7.03728693181818 11.8727678571429  C 6.95182291666667 11.7879464285714  6.90909090909091 11.6875  6.90909090909091 11.5714285714286  L 6.90909090909091 10.7142857142857  C 6.90909090909091 10.5982142857143  6.95182291666667 10.4977678571429  7.03728693181818 10.4129464285714  C 7.1227509469697 10.328125  7.22395833333333 10.2857142857143  7.34090909090909 10.2857142857143  L 8.20454545454546 10.2857142857143  C 8.32149621212121 10.2857142857143  8.42270359848485 10.328125  8.50816761363636 10.4129464285714  Z M 5.05362215909091 6.984375  C 5.13908617424242 7.06919642857143  5.18181818181818 7.16964285714286  5.18181818181818 7.28571428571429  L 5.18181818181818 8.14285714285714  C 5.18181818181818 8.25892857142857  5.13908617424242 8.359375  5.05362215909091 8.44419642857143  C 4.96815814393939 8.52901785714285  4.86695075757576 8.57142857142857  4.75 8.57142857142857  L 3.88636363636364 8.57142857142857  C 3.76941287878788 8.57142857142857  3.66820549242424 8.52901785714285  3.58274147727273 8.44419642857143  C 3.49727746212121 8.359375  3.45454545454545 8.25892857142857  3.45454545454545 8.14285714285714  L 3.45454545454545 7.28571428571429  C 3.45454545454545 7.16964285714286  3.49727746212121 7.06919642857143  3.58274147727273 6.984375  C 3.66820549242424 6.89955357142857  3.76941287878788 6.85714285714286  3.88636363636364 6.85714285714286  L 4.75 6.85714285714286  C 4.86695075757576 6.85714285714286  4.96815814393939 6.89955357142857  5.05362215909091 6.984375  Z M 15.4172585227273 13.8415178571429  C 15.5027225378788 13.9263392857143  15.5454545454545 14.0267857142857  15.5454545454545 14.1428571428571  L 15.5454545454545 15  C 15.5454545454545 15.1160714285714  15.5027225378788 15.2165178571429  15.4172585227273 15.3013392857143  C 15.3317945075758 15.3861607142857  15.2305871212121 15.4285714285714  15.1136363636364 15.4285714285714  L 14.25 15.4285714285714  C 14.1330492424242 15.4285714285714  14.0318418560606 15.3861607142857  13.9463778409091 15.3013392857143  C 13.8609138257576 15.2165178571429  13.8181818181818 15.1160714285714  13.8181818181818 15  L 13.8181818181818 14.1428571428571  C 13.8181818181818 14.0267857142857  13.8609138257576 13.9263392857143  13.9463778409091 13.8415178571429  C 14.0318418560606 13.7566964285714  14.1330492424242 13.7142857142857  14.25 13.7142857142857  L 15.1136363636364 13.7142857142857  C 15.2305871212121 13.7142857142857  15.3317945075758 13.7566964285714  15.4172585227273 13.8415178571429  Z M 11.9627130681818 10.4129464285714  C 12.0481770833333 10.4977678571429  12.0909090909091 10.5982142857143  12.0909090909091 10.7142857142857  L 12.0909090909091 11.5714285714286  C 12.0909090909091 11.6875  12.0481770833333 11.7879464285714  11.9627130681818 11.8727678571429  C 11.8772490530303 11.9575892857143  11.7760416666667 12  11.6590909090909 12  L 10.7954545454545 12  C 10.6785037878788 12  10.5772964015152 11.9575892857143  10.4918323863636 11.8727678571429  C 10.4063683712121 11.7879464285714  10.3636363636364 11.6875  10.3636363636364 11.5714285714286  L 10.3636363636364 10.7142857142857  C 10.3636363636364 10.5982142857143  10.4063683712121 10.4977678571429  10.4918323863636 10.4129464285714  C 10.5772964015152 10.328125  10.6785037878788 10.2857142857143  10.7954545454545 10.2857142857143  L 11.6590909090909 10.2857142857143  C 11.7760416666667 10.2857142857143  11.8772490530303 10.328125  11.9627130681818 10.4129464285714  Z M 8.50816761363636 6.984375  C 8.59363162878788 7.06919642857143  8.63636363636364 7.16964285714286  8.63636363636364 7.28571428571429  L 8.63636363636364 8.14285714285714  C 8.63636363636364 8.25892857142857  8.59363162878788 8.359375  8.50816761363636 8.44419642857143  C 8.42270359848485 8.52901785714285  8.32149621212121 8.57142857142857  8.20454545454546 8.57142857142857  L 7.34090909090909 8.57142857142857  C 7.22395833333333 8.57142857142857  7.1227509469697 8.52901785714285  7.03728693181818 8.44419642857143  C 6.95182291666667 8.359375  6.90909090909091 8.25892857142857  6.90909090909091 8.14285714285714  L 6.90909090909091 7.28571428571429  C 6.90909090909091 7.16964285714286  6.95182291666667 7.06919642857143  7.03728693181818 6.984375  C 7.1227509469697 6.89955357142857  7.22395833333333 6.85714285714286  7.34090909090909 6.85714285714286  L 8.20454545454546 6.85714285714286  C 8.32149621212121 6.85714285714286  8.42270359848485 6.89955357142857  8.50816761363636 6.984375  Z M 5.05362215909091 3.55580357142857  C 5.13908617424242 3.640625  5.18181818181818 3.74107142857143  5.18181818181818 3.85714285714286  L 5.18181818181818 4.71428571428571  C 5.18181818181818 4.83035714285714  5.13908617424242 4.93080357142857  5.05362215909091 5.015625  C 4.96815814393939 5.10044642857143  4.86695075757576 5.14285714285714  4.75 5.14285714285714  L 3.88636363636364 5.14285714285714  C 3.76941287878788 5.14285714285714  3.66820549242424 5.10044642857143  3.58274147727273 5.015625  C 3.49727746212121 4.93080357142857  3.45454545454545 4.83035714285714  3.45454545454545 4.71428571428571  L 3.45454545454545 3.85714285714286  C 3.45454545454545 3.74107142857143  3.49727746212121 3.640625  3.58274147727273 3.55580357142857  C 3.66820549242424 3.47098214285714  3.76941287878788 3.42857142857143  3.88636363636364 3.42857142857143  L 4.75 3.42857142857143  C 4.86695075757576 3.42857142857143  4.96815814393939 3.47098214285714  5.05362215909091 3.55580357142857  Z M 15.4172585227273 10.4129464285714  C 15.5027225378788 10.4977678571429  15.5454545454545 10.5982142857143  15.5454545454545 10.7142857142857  L 15.5454545454545 11.5714285714286  C 15.5454545454545 11.6875  15.5027225378788 11.7879464285714  15.4172585227273 11.8727678571429  C 15.3317945075758 11.9575892857143  15.2305871212121 12  15.1136363636364 12  L 14.25 12  C 14.1330492424242 12  14.0318418560606 11.9575892857143  13.9463778409091 11.8727678571429  C 13.8609138257576 11.7879464285714  13.8181818181818 11.6875  13.8181818181818 11.5714285714286  L 13.8181818181818 10.7142857142857  C 13.8181818181818 10.5982142857143  13.8609138257576 10.4977678571429  13.9463778409091 10.4129464285714  C 14.0318418560606 10.328125  14.1330492424242 10.2857142857143  14.25 10.2857142857143  L 15.1136363636364 10.2857142857143  C 15.2305871212121 10.2857142857143  15.3317945075758 10.328125  15.4172585227273 10.4129464285714  Z M 11.9627130681818 6.984375  C 12.0481770833333 7.06919642857143  12.0909090909091 7.16964285714286  12.0909090909091 7.28571428571429  L 12.0909090909091 8.14285714285714  C 12.0909090909091 8.25892857142857  12.0481770833333 8.359375  11.9627130681818 8.44419642857143  C 11.8772490530303 8.52901785714285  11.7760416666667 8.57142857142857  11.6590909090909 8.57142857142857  L 10.7954545454545 8.57142857142857  C 10.6785037878788 8.57142857142857  10.5772964015152 8.52901785714285  10.4918323863636 8.44419642857143  C 10.4063683712121 8.359375  10.3636363636364 8.25892857142857  10.3636363636364 8.14285714285714  L 10.3636363636364 7.28571428571429  C 10.3636363636364 7.16964285714286  10.4063683712121 7.06919642857143  10.4918323863636 6.984375  C 10.5772964015152 6.89955357142857  10.6785037878788 6.85714285714286  10.7954545454545 6.85714285714286  L 11.6590909090909 6.85714285714286  C 11.7760416666667 6.85714285714286  11.8772490530303 6.89955357142857  11.9627130681818 6.984375  Z M 8.50816761363636 3.55580357142857  C 8.59363162878788 3.640625  8.63636363636364 3.74107142857143  8.63636363636364 3.85714285714286  L 8.63636363636364 4.71428571428571  C 8.63636363636364 4.83035714285714  8.59363162878788 4.93080357142857  8.50816761363636 5.015625  C 8.42270359848485 5.10044642857143  8.32149621212121 5.14285714285714  8.20454545454546 5.14285714285714  L 7.34090909090909 5.14285714285714  C 7.22395833333333 5.14285714285714  7.1227509469697 5.10044642857143  7.03728693181818 5.015625  C 6.95182291666667 4.93080357142857  6.90909090909091 4.83035714285714  6.90909090909091 4.71428571428571  L 6.90909090909091 3.85714285714286  C 6.90909090909091 3.74107142857143  6.95182291666667 3.640625  7.03728693181818 3.55580357142857  C 7.1227509469697 3.47098214285714  7.22395833333333 3.42857142857143  7.34090909090909 3.42857142857143  L 8.20454545454546 3.42857142857143  C 8.32149621212121 3.42857142857143  8.42270359848485 3.47098214285714  8.50816761363636 3.55580357142857  Z M 15.4172585227273 6.984375  C 15.5027225378788 7.06919642857143  15.5454545454545 7.16964285714286  15.5454545454545 7.28571428571429  L 15.5454545454545 8.14285714285714  C 15.5454545454545 8.25892857142857  15.5027225378788 8.359375  15.4172585227273 8.44419642857143  C 15.3317945075758 8.52901785714285  15.2305871212121 8.57142857142857  15.1136363636364 8.57142857142857  L 14.25 8.57142857142857  C 14.1330492424242 8.57142857142857  14.0318418560606 8.52901785714285  13.9463778409091 8.44419642857143  C 13.8609138257576 8.359375  13.8181818181818 8.25892857142857  13.8181818181818 8.14285714285714  L 13.8181818181818 7.28571428571429  C 13.8181818181818 7.16964285714286  13.8609138257576 7.06919642857143  13.9463778409091 6.984375  C 14.0318418560606 6.89955357142857  14.1330492424242 6.85714285714286  14.25 6.85714285714286  L 15.1136363636364 6.85714285714286  C 15.2305871212121 6.85714285714286  15.3317945075758 6.89955357142857  15.4172585227273 6.984375  Z M 11.9627130681818 3.55580357142857  C 12.0481770833333 3.640625  12.0909090909091 3.74107142857143  12.0909090909091 3.85714285714286  L 12.0909090909091 4.71428571428571  C 12.0909090909091 4.83035714285714  12.0481770833333 4.93080357142857  11.9627130681818 5.015625  C 11.8772490530303 5.10044642857143  11.7760416666667 5.14285714285714  11.6590909090909 5.14285714285714  L 10.7954545454545 5.14285714285714  C 10.6785037878788 5.14285714285714  10.5772964015152 5.10044642857143  10.4918323863636 5.015625  C 10.4063683712121 4.93080357142857  10.3636363636364 4.83035714285714  10.3636363636364 4.71428571428571  L 10.3636363636364 3.85714285714286  C 10.3636363636364 3.74107142857143  10.4063683712121 3.640625  10.4918323863636 3.55580357142857  C 10.5772964015152 3.47098214285714  10.6785037878788 3.42857142857143  10.7954545454545 3.42857142857143  L 11.6590909090909 3.42857142857143  C 11.7760416666667 3.42857142857143  11.8772490530303 3.47098214285714  11.9627130681818 3.55580357142857  Z M 15.4172585227273 3.55580357142857  C 15.5027225378788 3.640625  15.5454545454545 3.74107142857143  15.5454545454545 3.85714285714286  L 15.5454545454545 4.71428571428571  C 15.5454545454545 4.83035714285714  15.5027225378788 4.93080357142857  15.4172585227273 5.015625  C 15.3317945075758 5.10044642857143  15.2305871212121 5.14285714285714  15.1136363636364 5.14285714285714  L 14.25 5.14285714285714  C 14.1330492424242 5.14285714285714  14.0318418560606 5.10044642857143  13.9463778409091 5.015625  C 13.8609138257576 4.93080357142857  13.8181818181818 4.83035714285714  13.8181818181818 4.71428571428571  L 13.8181818181818 3.85714285714286  C 13.8181818181818 3.74107142857143  13.8609138257576 3.640625  13.9463778409091 3.55580357142857  C 14.0318418560606 3.47098214285714  14.1330492424242 3.42857142857143  14.25 3.42857142857143  L 15.1136363636364 3.42857142857143  C 15.2305871212121 3.42857142857143  15.3317945075758 3.47098214285714  15.4172585227273 3.55580357142857  Z M 12.0909090909091 19.2857142857143  L 12.0909090909091 22.2857142857143  L 17 22.2857142857143  L 17 2  L 2 2  L 2 22.2857142857143  L 6.90909090909091 22.2857142857143  L 6.90909090909091 19.2857142857143  C 6.90909090909091 19.1696428571429  6.95182291666667 19.0691964285714  7.03728693181818 18.984375  C 7.1227509469697 18.8995535714286  7.22395833333333 18.8571428571429  7.34090909090909 18.8571428571429  L 11.6590909090909 18.8571428571429  C 11.7760416666667 18.8571428571429  11.8772490530303 18.8995535714286  11.9627130681818 18.984375  C 12.0481770833333 19.0691964285714  12.0909090909091 19.1696428571429  12.0909090909091 19.2857142857143  Z M 18.7436079545455 0.254464285714286  C 18.9145359848485 0.42410714285714  19 0.624999999999999  19 0.857142857142857  L 19 23.1428571428571  C 19 23.375  18.9145359848485 23.5758928571429  18.7436079545455 23.7455357142857  C 18.5726799242424 23.9151785714286  18.3702651515152 24  18.1363636363636 24  L 0.863636363636364 24  C 0.629734848484849 24  0.427320075757576 23.9151785714286  0.256392045454545 23.7455357142857  C 0.0854640151515151 23.5758928571429  0 23.375  0 23.1428571428571  L 0 0.857142857142857  C 0 0.624999999999999  0.0854640151515151 0.42410714285714  0.256392045454545 0.254464285714286  C 0.427320075757576 0.0848214285714306  0.629734848484849 0  0.863636363636364 0  L 18.1363636363636 0  C 18.3702651515152 0  18.5726799242424 0.0848214285714306  18.7436079545455 0.254464285714286  Z " fill-rule="nonzero" fill="#ffffff" stroke="none" transform="matrix(1 0 0 1 42 502 )" />
  </g>
</svg>