<?xml version="1.0" encoding="utf-8"?>
<svg version="1.1" xmlns:xlink="http://www.w3.org/1999/xlink" width="16px" height="24px" xmlns="http://www.w3.org/2000/svg">
  <g transform="matrix(1 0 0 1 -45 -422 )">
    <path d="M 10.828125 10.828125  C 11.609375 10.046875  12 9.10416666666667  12 8  C 12 6.89583333333333  11.609375 5.953125  10.828125 5.171875  C 10.046875 4.390625  9.10416666666667 4  8 4  C 6.89583333333333 4  5.953125 4.390625  5.171875 5.171875  C 4.390625 5.953125  4 6.89583333333333  4 8  C 4 9.10416666666667  4.390625 10.046875  5.171875 10.828125  C 5.953125 11.609375  6.89583333333333 12  8 12  C 9.10416666666667 12  10.046875 11.609375  10.828125 10.828125  Z M 13.65625 2.34375  C 15.21875 3.90625  16 5.79166666666666  16 8  C 16 9.13541666666666  15.828125 10.0677083333333  15.484375 10.796875  L 9.796875 22.890625  C 9.63020833333333 23.234375  9.3828125 23.5052083333333  9.0546875 23.703125  C 8.7265625 23.9010416666667  8.375 24  8 24  C 7.625 24  7.2734375 23.9010416666667  6.9453125 23.703125  C 6.6171875 23.5052083333333  6.375 23.234375  6.21875 22.890625  L 0.515625 10.796875  C 0.171875 10.0677083333333  0 9.13541666666666  0 8  C 0 5.79166666666666  0.78125 3.90625  2.34375 2.34375  C 3.90625 0.781250000000001  5.79166666666667 0  8 0  C 10.2083333333333 0  12.09375 0.781250000000001  13.65625 2.34375  Z " fill-rule="nonzero" fill="#ffffff" stroke="none" transform="matrix(1 0 0 1 45 422 )" />
  </g>
</svg>